<mxfile host="app.diagrams.net" agent="Mozilla/5.0 (Windows NT 10.0; Win64; x64) AppleWebKit/537.36 (KHTML, like Gecko) Chrome/128.0.0.0 Safari/537.36" version="24.7.14">
  <diagram name="第 1 页" id="s_lt_aDfpTFS0OprlucA">
    <mxGraphModel dx="724" dy="373" grid="0" gridSize="10" guides="1" tooltips="1" connect="1" arrows="1" fold="1" page="1" pageScale="1" pageWidth="827" pageHeight="1169" background="#ffffff" math="0" shadow="0">
      <root>
        <mxCell id="0" />
        <mxCell id="1" parent="0" />
        <mxCell id="tdEBrkWkZow2mzOadRaI-6" style="edgeStyle=orthogonalEdgeStyle;rounded=0;orthogonalLoop=1;jettySize=auto;html=1;exitX=1;exitY=0.5;exitDx=0;exitDy=0;entryX=0;entryY=0.5;entryDx=0;entryDy=0;" edge="1" parent="1" source="tdEBrkWkZow2mzOadRaI-1" target="tdEBrkWkZow2mzOadRaI-2">
          <mxGeometry relative="1" as="geometry" />
        </mxCell>
        <mxCell id="tdEBrkWkZow2mzOadRaI-15" style="edgeStyle=orthogonalEdgeStyle;rounded=0;orthogonalLoop=1;jettySize=auto;html=1;exitX=1;exitY=0.5;exitDx=0;exitDy=0;entryX=0;entryY=0.5;entryDx=0;entryDy=0;" edge="1" parent="1" source="tdEBrkWkZow2mzOadRaI-1" target="tdEBrkWkZow2mzOadRaI-7">
          <mxGeometry relative="1" as="geometry" />
        </mxCell>
        <mxCell id="tdEBrkWkZow2mzOadRaI-16" style="edgeStyle=orthogonalEdgeStyle;rounded=0;orthogonalLoop=1;jettySize=auto;html=1;exitX=1;exitY=0.5;exitDx=0;exitDy=0;" edge="1" parent="1" source="tdEBrkWkZow2mzOadRaI-1" target="tdEBrkWkZow2mzOadRaI-8">
          <mxGeometry relative="1" as="geometry" />
        </mxCell>
        <mxCell id="tdEBrkWkZow2mzOadRaI-17" style="edgeStyle=orthogonalEdgeStyle;rounded=0;orthogonalLoop=1;jettySize=auto;html=1;exitX=1;exitY=0.5;exitDx=0;exitDy=0;" edge="1" parent="1" source="tdEBrkWkZow2mzOadRaI-1" target="tdEBrkWkZow2mzOadRaI-9">
          <mxGeometry relative="1" as="geometry" />
        </mxCell>
        <mxCell id="tdEBrkWkZow2mzOadRaI-18" style="edgeStyle=orthogonalEdgeStyle;rounded=0;orthogonalLoop=1;jettySize=auto;html=1;exitX=1;exitY=0.5;exitDx=0;exitDy=0;entryX=0;entryY=0.5;entryDx=0;entryDy=0;" edge="1" parent="1" source="tdEBrkWkZow2mzOadRaI-1" target="tdEBrkWkZow2mzOadRaI-10">
          <mxGeometry relative="1" as="geometry" />
        </mxCell>
        <mxCell id="tdEBrkWkZow2mzOadRaI-20" style="edgeStyle=orthogonalEdgeStyle;rounded=0;orthogonalLoop=1;jettySize=auto;html=1;exitX=1;exitY=0.5;exitDx=0;exitDy=0;entryX=0;entryY=0.5;entryDx=0;entryDy=0;" edge="1" parent="1" source="tdEBrkWkZow2mzOadRaI-1" target="tdEBrkWkZow2mzOadRaI-19">
          <mxGeometry relative="1" as="geometry" />
        </mxCell>
        <mxCell id="tdEBrkWkZow2mzOadRaI-1" value="&lt;font style=&quot;font-size: 15px;&quot;&gt;查询接口&lt;/font&gt;" style="ellipse;whiteSpace=wrap;html=1;fillColor=#d5e8d4;strokeColor=#82b366;" vertex="1" parent="1">
          <mxGeometry x="50" y="180" width="90" height="50" as="geometry" />
        </mxCell>
        <mxCell id="tdEBrkWkZow2mzOadRaI-28" style="edgeStyle=orthogonalEdgeStyle;rounded=0;orthogonalLoop=1;jettySize=auto;html=1;exitX=1;exitY=0.5;exitDx=0;exitDy=0;entryX=0;entryY=0.5;entryDx=0;entryDy=0;fillColor=#ffe6cc;strokeColor=#d79b00;" edge="1" parent="1" source="tdEBrkWkZow2mzOadRaI-2" target="tdEBrkWkZow2mzOadRaI-24">
          <mxGeometry relative="1" as="geometry" />
        </mxCell>
        <mxCell id="tdEBrkWkZow2mzOadRaI-2" value="&lt;font style=&quot;font-size: 14px;&quot;&gt;查询所有工作流&lt;/font&gt;" style="rounded=1;whiteSpace=wrap;html=1;fillColor=#ffe6cc;strokeColor=#d79b00;" vertex="1" parent="1">
          <mxGeometry x="210" y="50" width="110" height="40" as="geometry" />
        </mxCell>
        <mxCell id="tdEBrkWkZow2mzOadRaI-7" value="&lt;font style=&quot;font-size: 14px;&quot;&gt;查询所有脚本&lt;/font&gt;" style="rounded=1;whiteSpace=wrap;html=1;fillColor=#f9f7ed;strokeColor=#36393d;" vertex="1" parent="1">
          <mxGeometry x="210" y="100" width="110" height="40" as="geometry" />
        </mxCell>
        <mxCell id="tdEBrkWkZow2mzOadRaI-8" value="&lt;font style=&quot;font-size: 14px;&quot;&gt;查询所有事件&lt;/font&gt;" style="rounded=1;whiteSpace=wrap;html=1;fillColor=#f9f7ed;strokeColor=#36393d;" vertex="1" parent="1">
          <mxGeometry x="210" y="150" width="110" height="40" as="geometry" />
        </mxCell>
        <mxCell id="tdEBrkWkZow2mzOadRaI-25" style="edgeStyle=orthogonalEdgeStyle;rounded=0;orthogonalLoop=1;jettySize=auto;html=1;exitX=1;exitY=0.5;exitDx=0;exitDy=0;entryX=0;entryY=0.5;entryDx=0;entryDy=0;fillColor=#e1d5e7;strokeColor=#9673a6;" edge="1" parent="1" source="tdEBrkWkZow2mzOadRaI-9" target="tdEBrkWkZow2mzOadRaI-21">
          <mxGeometry relative="1" as="geometry" />
        </mxCell>
        <mxCell id="tdEBrkWkZow2mzOadRaI-9" value="&lt;font style=&quot;font-size: 14px;&quot;&gt;查询所有部署任务&lt;/font&gt;" style="rounded=1;whiteSpace=wrap;html=1;fillColor=#e1d5e7;strokeColor=#9673a6;" vertex="1" parent="1">
          <mxGeometry x="210" y="200" width="120" height="40" as="geometry" />
        </mxCell>
        <mxCell id="tdEBrkWkZow2mzOadRaI-27" style="edgeStyle=orthogonalEdgeStyle;rounded=0;orthogonalLoop=1;jettySize=auto;html=1;exitX=1;exitY=0.5;exitDx=0;exitDy=0;entryX=0;entryY=0.5;entryDx=0;entryDy=0;fillColor=#76608a;strokeColor=#432D57;" edge="1" parent="1" source="tdEBrkWkZow2mzOadRaI-10" target="tdEBrkWkZow2mzOadRaI-22">
          <mxGeometry relative="1" as="geometry" />
        </mxCell>
        <mxCell id="tdEBrkWkZow2mzOadRaI-10" value="&lt;font style=&quot;font-size: 14px;&quot;&gt;查询所有编排模板&lt;/font&gt;" style="rounded=1;whiteSpace=wrap;html=1;fillColor=#76608a;strokeColor=#432D57;fontColor=#ffffff;" vertex="1" parent="1">
          <mxGeometry x="210" y="253" width="120" height="40" as="geometry" />
        </mxCell>
        <mxCell id="tdEBrkWkZow2mzOadRaI-19" value="&lt;font style=&quot;font-size: 14px;&quot;&gt;查询所有部署步骤类型&lt;/font&gt;" style="rounded=1;whiteSpace=wrap;html=1;fillColor=#76608a;strokeColor=#432D57;fontColor=#ffffff;" vertex="1" parent="1">
          <mxGeometry x="210" y="303" width="150" height="40" as="geometry" />
        </mxCell>
        <mxCell id="tdEBrkWkZow2mzOadRaI-26" style="edgeStyle=orthogonalEdgeStyle;rounded=0;orthogonalLoop=1;jettySize=auto;html=1;exitX=1;exitY=0.5;exitDx=0;exitDy=0;entryX=0;entryY=0.5;entryDx=0;entryDy=0;fillColor=#e1d5e7;strokeColor=#9673a6;" edge="1" parent="1" source="tdEBrkWkZow2mzOadRaI-21" target="tdEBrkWkZow2mzOadRaI-23">
          <mxGeometry relative="1" as="geometry" />
        </mxCell>
        <mxCell id="tdEBrkWkZow2mzOadRaI-21" value="&lt;font style=&quot;font-size: 14px;&quot;&gt;根据id查询某部署任务详情&lt;/font&gt;" style="rounded=1;whiteSpace=wrap;html=1;fillColor=#e1d5e7;strokeColor=#9673a6;" vertex="1" parent="1">
          <mxGeometry x="350" y="200" width="170" height="40" as="geometry" />
        </mxCell>
        <mxCell id="tdEBrkWkZow2mzOadRaI-22" value="&lt;font style=&quot;font-size: 14px;&quot;&gt;根据id查询某编排模板所有步骤&lt;/font&gt;" style="rounded=1;whiteSpace=wrap;html=1;fillColor=#76608a;strokeColor=#432D57;fontColor=#ffffff;" vertex="1" parent="1">
          <mxGeometry x="350" y="253" width="200" height="40" as="geometry" />
        </mxCell>
        <mxCell id="tdEBrkWkZow2mzOadRaI-23" value="&lt;font style=&quot;font-size: 14px;&quot;&gt;根据id查询某部署任务的某步骤执行日志&lt;/font&gt;" style="rounded=1;whiteSpace=wrap;html=1;fillColor=#e1d5e7;strokeColor=#9673a6;" vertex="1" parent="1">
          <mxGeometry x="540" y="200" width="140" height="40" as="geometry" />
        </mxCell>
        <mxCell id="tdEBrkWkZow2mzOadRaI-24" value="&lt;font style=&quot;font-size: 14px;&quot;&gt;根据id查询对应工作流任务节点以及依赖关系&lt;/font&gt;" style="rounded=1;whiteSpace=wrap;html=1;fillColor=#ffe6cc;strokeColor=#d79b00;" vertex="1" parent="1">
          <mxGeometry x="340" y="50" width="290" height="40" as="geometry" />
        </mxCell>
        <mxCell id="tdEBrkWkZow2mzOadRaI-40" style="edgeStyle=orthogonalEdgeStyle;rounded=0;orthogonalLoop=1;jettySize=auto;html=1;exitX=1;exitY=0.5;exitDx=0;exitDy=0;entryX=0;entryY=0.5;entryDx=0;entryDy=0;" edge="1" parent="1" source="tdEBrkWkZow2mzOadRaI-30" target="tdEBrkWkZow2mzOadRaI-31">
          <mxGeometry relative="1" as="geometry" />
        </mxCell>
        <mxCell id="tdEBrkWkZow2mzOadRaI-41" style="edgeStyle=orthogonalEdgeStyle;rounded=0;orthogonalLoop=1;jettySize=auto;html=1;exitX=1;exitY=0.5;exitDx=0;exitDy=0;" edge="1" parent="1" source="tdEBrkWkZow2mzOadRaI-30" target="tdEBrkWkZow2mzOadRaI-34">
          <mxGeometry relative="1" as="geometry" />
        </mxCell>
        <mxCell id="tdEBrkWkZow2mzOadRaI-42" style="edgeStyle=orthogonalEdgeStyle;rounded=0;orthogonalLoop=1;jettySize=auto;html=1;exitX=1;exitY=0.5;exitDx=0;exitDy=0;" edge="1" parent="1" source="tdEBrkWkZow2mzOadRaI-30" target="tdEBrkWkZow2mzOadRaI-35">
          <mxGeometry relative="1" as="geometry" />
        </mxCell>
        <mxCell id="tdEBrkWkZow2mzOadRaI-43" style="edgeStyle=orthogonalEdgeStyle;rounded=0;orthogonalLoop=1;jettySize=auto;html=1;exitX=1;exitY=0.5;exitDx=0;exitDy=0;entryX=0;entryY=0.5;entryDx=0;entryDy=0;" edge="1" parent="1" source="tdEBrkWkZow2mzOadRaI-30" target="tdEBrkWkZow2mzOadRaI-38">
          <mxGeometry relative="1" as="geometry" />
        </mxCell>
        <mxCell id="tdEBrkWkZow2mzOadRaI-30" value="&lt;font style=&quot;font-size: 15px;&quot;&gt;修改接口&lt;/font&gt;" style="ellipse;whiteSpace=wrap;html=1;fillColor=#cce5ff;strokeColor=#36393d;" vertex="1" parent="1">
          <mxGeometry x="41" y="546" width="90" height="50" as="geometry" />
        </mxCell>
        <mxCell id="tdEBrkWkZow2mzOadRaI-31" value="&lt;font style=&quot;font-size: 14px;&quot;&gt;根据id运行工作流&lt;/font&gt;" style="rounded=1;whiteSpace=wrap;html=1;fillColor=#ffe6cc;strokeColor=#d79b00;" vertex="1" parent="1">
          <mxGeometry x="171" y="461" width="123" height="40" as="geometry" />
        </mxCell>
        <mxCell id="tdEBrkWkZow2mzOadRaI-32" value="&lt;font style=&quot;font-size: 14px;&quot;&gt;根据id冻结工作流&lt;/font&gt;" style="rounded=1;whiteSpace=wrap;html=1;fillColor=#ffe6cc;strokeColor=#d79b00;" vertex="1" parent="1">
          <mxGeometry x="315" y="461" width="123" height="40" as="geometry" />
        </mxCell>
        <mxCell id="tdEBrkWkZow2mzOadRaI-33" value="&lt;font style=&quot;font-size: 14px;&quot;&gt;根据id停止工作流&lt;/font&gt;" style="rounded=1;whiteSpace=wrap;html=1;fillColor=#ffe6cc;strokeColor=#d79b00;" vertex="1" parent="1">
          <mxGeometry x="315" y="509" width="123" height="40" as="geometry" />
        </mxCell>
        <mxCell id="tdEBrkWkZow2mzOadRaI-34" value="&lt;font style=&quot;font-size: 14px;&quot;&gt;根据id删除工作流&lt;/font&gt;" style="rounded=1;whiteSpace=wrap;html=1;fillColor=#ffe6cc;strokeColor=#d79b00;" vertex="1" parent="1">
          <mxGeometry x="171" y="509" width="123" height="40" as="geometry" />
        </mxCell>
        <mxCell id="tdEBrkWkZow2mzOadRaI-35" value="&lt;font style=&quot;font-size: 14px;&quot;&gt;根据id运行部署任务&lt;/font&gt;" style="rounded=1;whiteSpace=wrap;html=1;fillColor=#e1d5e7;strokeColor=#9673a6;" vertex="1" parent="1">
          <mxGeometry x="171" y="568" width="127" height="40" as="geometry" />
        </mxCell>
        <mxCell id="tdEBrkWkZow2mzOadRaI-36" value="&lt;font style=&quot;font-size: 14px;&quot;&gt;根据id修改部署任务&lt;/font&gt;" style="rounded=1;whiteSpace=wrap;html=1;fillColor=#e1d5e7;strokeColor=#9673a6;" vertex="1" parent="1">
          <mxGeometry x="315" y="622" width="140" height="40" as="geometry" />
        </mxCell>
        <mxCell id="tdEBrkWkZow2mzOadRaI-38" value="&lt;font style=&quot;font-size: 14px;&quot;&gt;根据id删除部署任务&lt;/font&gt;" style="rounded=1;whiteSpace=wrap;html=1;fillColor=#e1d5e7;strokeColor=#9673a6;" vertex="1" parent="1">
          <mxGeometry x="171" y="622" width="128" height="40" as="geometry" />
        </mxCell>
        <mxCell id="tdEBrkWkZow2mzOadRaI-39" value="&lt;font style=&quot;font-size: 14px;&quot;&gt;根据id重试某部署任务的某步骤&lt;/font&gt;" style="rounded=1;whiteSpace=wrap;html=1;fillColor=#e1d5e7;strokeColor=#9673a6;" vertex="1" parent="1">
          <mxGeometry x="315" y="568" width="205" height="40" as="geometry" />
        </mxCell>
        <mxCell id="tdEBrkWkZow2mzOadRaI-44" value="&lt;font style=&quot;font-size: 14px;&quot;&gt;新增部署任务&lt;/font&gt;" style="rounded=1;whiteSpace=wrap;html=1;fillColor=#e1d5e7;strokeColor=#9673a6;" vertex="1" parent="1">
          <mxGeometry x="187" y="854" width="128" height="40" as="geometry" />
        </mxCell>
        <mxCell id="tdEBrkWkZow2mzOadRaI-50" style="edgeStyle=orthogonalEdgeStyle;rounded=0;orthogonalLoop=1;jettySize=auto;html=1;exitX=1;exitY=0.5;exitDx=0;exitDy=0;entryX=0;entryY=0.5;entryDx=0;entryDy=0;" edge="1" parent="1" source="tdEBrkWkZow2mzOadRaI-45" target="tdEBrkWkZow2mzOadRaI-46">
          <mxGeometry relative="1" as="geometry" />
        </mxCell>
        <mxCell id="tdEBrkWkZow2mzOadRaI-51" style="edgeStyle=orthogonalEdgeStyle;rounded=0;orthogonalLoop=1;jettySize=auto;html=1;exitX=1;exitY=0.5;exitDx=0;exitDy=0;" edge="1" parent="1" source="tdEBrkWkZow2mzOadRaI-45" target="tdEBrkWkZow2mzOadRaI-48">
          <mxGeometry relative="1" as="geometry" />
        </mxCell>
        <mxCell id="tdEBrkWkZow2mzOadRaI-53" style="edgeStyle=orthogonalEdgeStyle;rounded=0;orthogonalLoop=1;jettySize=auto;html=1;exitX=1;exitY=0.5;exitDx=0;exitDy=0;entryX=0;entryY=0.5;entryDx=0;entryDy=0;" edge="1" parent="1" source="tdEBrkWkZow2mzOadRaI-45" target="tdEBrkWkZow2mzOadRaI-44">
          <mxGeometry relative="1" as="geometry" />
        </mxCell>
        <mxCell id="tdEBrkWkZow2mzOadRaI-45" value="&lt;font style=&quot;font-size: 15px;&quot;&gt;新增/上传接口&lt;/font&gt;" style="ellipse;whiteSpace=wrap;html=1;fillColor=#ffcccc;strokeColor=#36393d;" vertex="1" parent="1">
          <mxGeometry x="36" y="788" width="110" height="50" as="geometry" />
        </mxCell>
        <mxCell id="tdEBrkWkZow2mzOadRaI-46" value="&lt;font style=&quot;font-size: 14px;&quot;&gt;全量上传工作流&lt;/font&gt;" style="rounded=1;whiteSpace=wrap;html=1;fillColor=#ffe6cc;strokeColor=#d79b00;" vertex="1" parent="1">
          <mxGeometry x="187" y="726" width="128" height="40" as="geometry" />
        </mxCell>
        <mxCell id="tdEBrkWkZow2mzOadRaI-47" value="&lt;font style=&quot;font-size: 14px;&quot;&gt;增量上传工作流&lt;/font&gt;" style="rounded=1;whiteSpace=wrap;html=1;fillColor=#ffe6cc;strokeColor=#d79b00;" vertex="1" parent="1">
          <mxGeometry x="325" y="726" width="128" height="40" as="geometry" />
        </mxCell>
        <mxCell id="tdEBrkWkZow2mzOadRaI-48" value="&lt;span style=&quot;font-size: 14px;&quot;&gt;上传脚本&lt;/span&gt;" style="rounded=1;whiteSpace=wrap;html=1;fillColor=#f9f7ed;strokeColor=#36393d;" vertex="1" parent="1">
          <mxGeometry x="187" y="793" width="128" height="40" as="geometry" />
        </mxCell>
        <mxCell id="tdEBrkWkZow2mzOadRaI-49" value="&lt;span style=&quot;font-size: 14px;&quot;&gt;上传事件&lt;/span&gt;" style="rounded=1;whiteSpace=wrap;html=1;fillColor=#f9f7ed;strokeColor=#36393d;" vertex="1" parent="1">
          <mxGeometry x="325" y="793" width="128" height="40" as="geometry" />
        </mxCell>
      </root>
    </mxGraphModel>
  </diagram>
</mxfile>
